<svg xmlns="http://www.w3.org/2000/svg" width="32" height="32" fill="none"><path fill="#F2A60C" d="M25.946 13.334a1.331 1.331 0 0 0-.093 1.333c.33.772.564 1.583.693 2.413a10.667 10.667 0 0 1-.92 6.307 1.335 1.335 0 0 1-1.186.706H7.573a1.333 1.333 0 0 1-1.187-.72A10.667 10.667 0 0 1 17.333 8.08c.968.114 1.916.365 2.813.747a1.333 1.333 0 0 0 1.334-.094 1.333 1.333 0 0 0-.227-2.346A13.333 13.333 0 0 0 4.466 25.334a2.667 2.667 0 0 0 2.294 1.333h18.466a2.667 2.667 0 0 0 2.32-1.334 13.334 13.334 0 0 0 .734-11.853 1.333 1.333 0 0 0-2.334-.146Z"/><path fill="#F2A60C" d="M14.12 16.787a2.668 2.668 0 0 0 3.774 3.773L25.44 9.24l-11.32 7.547Z"/></svg>