<svg width="32" height="32" viewBox="0 0 32 32" fill="none" xmlns="http://www.w3.org/2000/svg">
<path d="M16.0007 10.6667C13.054 10.6667 10.6673 13.0534 10.6673 16C10.6673 18.9467 13.054 21.3334 16.0007 21.3334C18.9473 21.3334 21.334 18.9467 21.334 16C21.334 13.0534 18.9473 10.6667 16.0007 10.6667ZM27.9207 14.6667C27.6186 11.9629 26.4062 9.44209 24.4824 7.5183C22.5586 5.59451 20.0378 4.38206 17.334 4.08004V2.66671C17.334 1.93337 16.734 1.33337 16.0007 1.33337C15.2673 1.33337 14.6673 1.93337 14.6673 2.66671V4.08004C11.9635 4.38206 9.4427 5.59451 7.51891 7.5183C5.59512 9.44209 4.38267 11.9629 4.08065 14.6667H2.66732C1.93398 14.6667 1.33398 15.2667 1.33398 16C1.33398 16.7334 1.93398 17.3334 2.66732 17.3334H4.08065C4.38267 20.0372 5.59512 22.558 7.51891 24.4818C9.4427 26.4056 11.9635 27.618 14.6673 27.92V29.3334C14.6673 30.0667 15.2673 30.6667 16.0007 30.6667C16.734 30.6667 17.334 30.0667 17.334 29.3334V27.92C20.0378 27.618 22.5586 26.4056 24.4824 24.4818C26.4062 22.558 27.6186 20.0372 27.9207 17.3334H29.334C30.0673 17.3334 30.6673 16.7334 30.6673 16C30.6673 15.2667 30.0673 14.6667 29.334 14.6667H27.9207ZM16.0007 25.3334C10.8407 25.3334 6.66732 21.16 6.66732 16C6.66732 10.84 10.8407 6.66671 16.0007 6.66671C21.1607 6.66671 25.334 10.84 25.334 16C25.334 21.16 21.1607 25.3334 16.0007 25.3334Z" fill="#F2A60C"/>
</svg>
