<svg width="32" height="32" viewBox="0 0 32 32" fill="none" xmlns="http://www.w3.org/2000/svg">
<path d="M8.06652 10.7335C6.32089 12.4794 5.33802 14.8457 5.33303 17.3146C5.32803 19.7835 6.30131 22.1538 8.03985 23.9068C9.99985 19.3735 13.4932 15.5868 17.8532 13.3335C14.0899 16.5177 11.5496 20.9102 10.6665 25.7601C14.1332 27.4001 18.3999 26.8001 21.2665 23.9335C25.2532 19.9468 26.3732 9.08012 26.6132 6.09346C26.6215 5.99856 26.609 5.90298 26.5764 5.81345C26.5439 5.72392 26.4921 5.64261 26.4247 5.57524C26.3574 5.50788 26.2761 5.4561 26.1865 5.42354C26.097 5.39098 26.0014 5.37843 25.9065 5.38679C22.9199 5.62679 12.0532 6.74679 8.06652 10.7335Z" fill="#F2A60C"/>
</svg>
