<svg width="32" height="32" viewBox="0 0 32 32" fill="none" xmlns="http://www.w3.org/2000/svg">
<path d="M25.9463 13.3335C25.8147 13.5278 25.7368 13.7535 25.7205 13.9876C25.7041 14.2217 25.7498 14.456 25.8529 14.6668C26.1836 15.4388 26.4169 16.2495 26.5463 17.0801C26.8895 19.227 26.5685 21.4275 25.6263 23.3868C25.5118 23.6017 25.3407 23.7812 25.1316 23.9058C24.9224 24.0303 24.6831 24.0952 24.4396 24.0935H7.57293C7.32809 24.094 7.08784 24.0271 6.87852 23.9C6.6692 23.773 6.49889 23.5909 6.38626 23.3735C5.53277 21.642 5.16512 19.7115 5.32251 17.7875C5.4799 15.8636 6.15643 14.0185 7.27997 12.4488C8.40352 10.8791 9.93197 9.64374 11.7024 8.87438C13.4728 8.10503 15.4188 7.83052 17.3329 8.08013C18.3014 8.19396 19.2488 8.44538 20.1463 8.82679C20.3571 8.92996 20.5914 8.97565 20.8255 8.95926C21.0596 8.94288 21.2852 8.86498 21.4796 8.73346C21.6821 8.60005 21.8444 8.41394 21.949 8.19516C22.0536 7.97638 22.0965 7.73322 22.0732 7.49184C22.0499 7.25046 21.9612 7.02002 21.8167 6.8253C21.6721 6.63059 21.4772 6.47898 21.2529 6.38679C18.6772 5.28234 15.8189 5.01758 13.0841 5.63012C10.3494 6.24267 7.87712 7.70138 6.0186 9.79904C4.16009 11.8967 3.0098 14.5266 2.73113 17.3153C2.45246 20.104 3.05959 22.9095 4.46626 25.3335C4.69894 25.7365 5.03305 26.0716 5.43537 26.3055C5.83769 26.5394 6.29423 26.664 6.7596 26.6668H25.2263C25.6962 26.6687 26.1582 26.5463 26.5656 26.3122C26.973 26.078 27.3113 25.7404 27.5463 25.3335C28.5761 23.5487 29.1783 21.5496 29.3055 19.4929C29.4328 17.4363 29.0816 15.3782 28.2796 13.4801C28.178 13.2638 28.0202 13.0788 27.8226 12.9444C27.625 12.81 27.3949 12.7311 27.1563 12.7161C26.9178 12.7011 26.6797 12.7505 26.4668 12.8591C26.2539 12.9677 26.0741 13.1316 25.9463 13.3335Z" fill="#F2A60C"/>
<path d="M14.1203 16.7868C13.62 17.2872 13.3389 17.9658 13.3389 18.6734C13.3389 19.0238 13.4079 19.3708 13.542 19.6945C13.6761 20.0182 13.8726 20.3124 14.1203 20.5601C14.3681 20.8079 14.6622 21.0044 14.986 21.1385C15.3097 21.2726 15.6566 21.3416 16.007 21.3416C16.7147 21.3416 17.3933 21.0605 17.8937 20.5601L25.4403 9.24011L14.1203 16.7868Z" fill="#F2A60C"/>
</svg>
