<svg width="32" height="32" viewBox="0 0 32 32" fill="none" xmlns="http://www.w3.org/2000/svg">
<g clip-path="url(#clip0_87_168)">
<circle cx="16" cy="16" r="16" fill="white"/>
<path d="M23.5833 13.5H22.695L20.8533 7.65C20.7009 7.16763 20.4239 6.75081 20.0597 6.45577C19.6955 6.16073 19.2617 6.00165 18.8167 6H17.0833C16.4875 6 16 6.5625 16 7.25C16 7.9375 16.4875 8.5 17.0833 8.5H18.8167L20.3983 13.5H15.1875L14.7975 12.25H14.895C15.4908 12.25 15.9783 11.6875 15.9783 11C15.9783 10.3125 15.4908 9.75 14.895 9.75H11.6667C11.0708 9.75 10.5833 10.3125 10.5833 11C10.5833 11.6875 11.0708 12.25 11.6667 12.25H12.4792L14.4508 18.5H13.725C13.2483 15.7125 11.2225 13.65 8.6875 13.5125C5.65417 13.3375 3 16.25 3 19.75C3 23.25 5.38333 26 8.41667 26C11.0817 26 13.2375 23.8875 13.725 21H18.275C18.7517 23.7875 20.7775 25.85 23.3125 25.9875C26.3458 26.15 29 23.25 29 19.7375C29 16.25 26.6167 13.5 23.5833 13.5ZM9.5 21H11.4717C11.0167 22.5375 9.73833 23.6 8.2 23.4875C6.58583 23.375 5.2425 21.8 5.16667 19.925C5.09083 17.7375 6.5425 16 8.41667 16C9.8575 16 11.0383 17.0375 11.4717 18.5H9.5C8.90417 18.5 8.41667 19.0625 8.41667 19.75C8.41667 20.4375 8.90417 21 9.5 21ZM18.275 18.5H16.7583L15.9675 16H19.25C18.7733 16.725 18.4267 17.5625 18.275 18.5ZM23.4533 23.5C21.785 23.425 20.3767 21.7875 20.3333 19.85C20.3117 18.65 20.7558 17.6 21.4708 16.9L22.1425 19.025C22.3483 19.675 22.9658 20.0125 23.5292 19.775C24.0925 19.5375 24.385 18.825 24.1792 18.175L23.4967 16.0125L23.5075 16C23.9418 15.9829 24.3747 16.0676 24.7799 16.2488C25.1851 16.4301 25.5543 16.7043 25.8651 17.0548C26.1759 17.4052 26.422 17.8247 26.5884 18.288C26.7548 18.7512 26.8381 19.2486 26.8333 19.75C26.8333 21.9 25.3383 23.575 23.4533 23.5Z" fill="url(#paint0_linear_87_168)"/>
</g>
<defs>
<linearGradient id="paint0_linear_87_168" x1="16" y1="6" x2="16" y2="26" gradientUnits="userSpaceOnUse">
<stop stop-color="#FFB600"/>
<stop offset="1" stop-color="#E59317"/>
</linearGradient>
<clipPath id="clip0_87_168">
<rect width="32" height="32" fill="white"/>
</clipPath>
</defs>
</svg>
